<svg xmlns="http://www.w3.org/2000/svg" width="512" height="512" viewBox="0 0 64 64" fill="none">
  
  <g transform="translate(10, 6)">
    <path d="M0,12 L14,4 L28,12 L14,20 Z" fill="#f0d264"></path>
    <path d="M0,12 L0,28 L14,36 L14,20 Z" fill="#c9a84e"></path>
    <path d="M14,20 L14,36 L28,28 L28,12 Z" fill="#dbbe54"></path>
    <path d="M0,12 L14,4 L28,12 L14,20 Z" fill="url(#hlA)" opacity="0.35"></path>
  </g>
  
  <g transform="translate(26, 10)">
    <path d="M0,12 L14,4 L28,12 L14,20 Z" fill="#5ba3e0"></path>
    <path d="M0,12 L0,24 L14,32 L14,20 Z" fill="#3a7cba"></path>
    <path d="M14,20 L14,32 L28,24 L28,12 Z" fill="#4a90cc"></path>
    <path d="M0,12 L14,4 L28,12 L14,20 Z" fill="url(#hlA)" opacity="0.3"></path>
  </g>
  
  <g transform="translate(2, 22)">
    <path d="M0,12 L14,4 L28,12 L14,20 Z" fill="#4bc07a"></path>
    <path d="M0,12 L0,20 L14,28 L14,20 Z" fill="#2d8a55"></path>
    <path d="M14,20 L14,28 L28,20 L28,12 Z" fill="#3aa066"></path>
    <path d="M0,12 L14,4 L28,12 L14,20 Z" fill="url(#hlA)" opacity="0.3"></path>
  </g>
  
  <g transform="translate(18, 18)">
    <path d="M0,12 L14,4 L28,12 L14,20 Z" fill="#ef8f6e"></path>
    <path d="M0,12 L0,26 L14,34 L14,20 Z" fill="#c06840"></path>
    <path d="M14,20 L14,34 L28,26 L28,12 Z" fill="#d47850"></path>
    <path d="M0,12 L14,4 L28,12 L14,20 Z" fill="url(#hlA)" opacity="0.25"></path>
  </g>
  <defs>
    <linearGradient id="hlA" x1="0" y1="0" x2="1" y2="1">
      <stop offset="0" stop-color="white" stop-opacity="0.8"></stop>
      <stop offset="1" stop-color="white" stop-opacity="0"></stop>
    </linearGradient>
  </defs>
</svg>