<svg xmlns="http://www.w3.org/2000/svg" width="80" height="80" viewBox="0 0 80 80" fill="none">
  <rect x="14" y="10" width="44" height="60" rx="3" fill="white" stroke="#2d2a24" stroke-width="2"></rect>

  <rect x="14" y="10" width="6" height="60" fill="#e8e5da"></rect>
  <line x1="14" y1="10" x2="14" y2="70" stroke="#2d2a24" stroke-width="2"></line>
  <line x1="20" y1="10" x2="20" y2="70" stroke="#2d2a24" stroke-width="1"></line>

  <circle cx="17" cy="20" r="1" fill="#2d2a24" opacity="0.2"></circle>
  <circle cx="17" cy="32" r="1" fill="#2d2a24" opacity="0.2"></circle>
  <circle cx="17" cy="44" r="1" fill="#2d2a24" opacity="0.2"></circle>
  <circle cx="17" cy="56" r="1" fill="#2d2a24" opacity="0.2"></circle>

  <rect x="24" y="18" width="28" height="2" rx="1" fill="#2d2a24" opacity="0.1"></rect>
  <rect x="24" y="24" width="22" height="1.5" rx="0.75" fill="#2d2a24" opacity="0.06"></rect>
  <rect x="24" y="29" width="26" height="1.5" rx="0.75" fill="#2d2a24" opacity="0.06"></rect>

  <rect
    x="24"
    y="36"
    width="28"
    height="10"
    rx="2"
    fill="#2d2a24"
    opacity="0.04"
    stroke="#2d2a24"
    stroke-width="0.8"
    stroke-opacity="0.08"
  ></rect>
  <rect x="26" y="38" width="14" height="2" rx="1" fill="#2d2a24" opacity="0.12"></rect>
  <rect x="26" y="42" width="10" height="1.5" rx="0.75" fill="#2d2a24" opacity="0.08"></rect>

  <rect x="24" y="50" width="20" height="1.5" rx="0.75" fill="#2d2a24" opacity="0.06"></rect>
  <rect x="24" y="55" width="26" height="1.5" rx="0.75" fill="#2d2a24" opacity="0.06"></rect>
  <rect x="24" y="60" width="18" height="1.5" rx="0.75" fill="#2d2a24" opacity="0.06"></rect>

  <path d="M46,8 L46,52 L49.5,47 L53,52 L53,8 Z" fill="#2d2a24"></path>
</svg>
